<?xml version="1.0" standalone="no"?>
<!DOCTYPE svg PUBLIC "-//W3C//DTD SVG 20010904//EN"
 "http://www.w3.org/TR/2001/REC-SVG-20010904/DTD/svg10.dtd">
<svg version="1.0" xmlns="http://www.w3.org/2000/svg"
 width="1280.000000pt" height="815.000000pt" viewBox="0 0 1280.000000 815.000000"
 preserveAspectRatio="xMidYMid meet">

<g transform="translate(0.000000,815.000000) scale(0.100000,-0.100000)"
fill="#000000" stroke="none">
<path d="M4014 8136 c-4 -11 -17 -13 -50 -10 -25 3 -44 1 -44 -4 0 -12 -18
-10 -40 2 -8 5 -12 6 -8 1 10 -11 -29 -38 -42 -30 -6 3 -10 1 -10 -5 0 -6 -4
-8 -10 -5 -5 3 -10 1 -10 -5 0 -6 -5 -8 -10 -5 -11 7 -115 -93 -106 -102 3 -3
-1 -12 -9 -19 -8 -8 -12 -23 -10 -34 2 -11 0 -20 -4 -20 -5 0 -8 -10 -7 -22 1
-15 -4 -22 -13 -20 -12 3 -12 0 -2 -12 11 -13 12 -729 6 -3753 l-8 -3738 197
3 196 3 3 1517 2 1517 3 -1527 2 -1528 -205 0 -205 0 -2 1988 c-3 1819 -4
1991 -20 2030 -37 98 -107 165 -208 199 -52 17 -114 18 -1160 18 -1046 0
-1108 -1 -1160 -18 -103 -35 -183 -114 -213 -211 -9 -32 -12 -477 -12 -2021
l0 -1980 -355 -5 c-339 -5 -357 -6 -395 -26 -49 -27 -70 -49 -90 -98 -29 -68
7 -145 88 -189 l42 -22 6255 0 6255 0 42 22 c81 44 117 121 88 189 -20 49 -41
71 -90 98 -38 20 -54 21 -392 24 l-353 3 0 1264 c0 897 -3 1279 -11 1317 -29
134 -111 215 -256 253 -86 22 -2160 22 -2246 0 -105 -27 -185 -84 -225 -160
-42 -82 -42 -70 -42 -1402 l0 -1273 -1590 0 -1590 0 2 483 3 482 2 -472 3
-473 193 0 192 0 -5 2648 c-3 1456 -5 3149 -5 3762 0 681 -4 1118 -9 1122 -6
4 -4 14 5 24 8 10 9 15 4 12 -6 -4 -21 15 -33 42 -21 46 -81 105 -113 112 -8
2 -16 6 -19 10 -3 4 -17 9 -30 11 -14 2 -32 7 -40 11 -9 3 -40 8 -68 10 -29 2
-58 8 -65 15 -8 8 -272 11 -999 11 -845 0 -989 -2 -994 -14z m23 -973 c-1
-120 -2 -22 -2 217 0 239 1 337 2 218 2 -120 2 -316 0 -435z m1943 -713 c0
-748 -3 -1360 -6 -1360 -3 0 -18 8 -32 18 -39 27 -52 34 -52 28 0 -11 81 -57
90 -51 12 7 14 -2882 3 -4018 l-6 -727 -964 0 -963 0 0 1531 c0 1360 2 1530
15 1519 13 -11 15 187 15 1774 0 1581 -2 1786 -15 1786 -13 0 -15 54 -15 430
l0 430 965 0 965 0 0 -1360z m17 -672 c-1 -376 -2 -71 -2 677 0 748 1 1055 2
683 2 -372 2 -984 0 -1360z m-4062 -1548 c-71 -3 -120 -7 -107 -8 l22 -2 0
-1190 0 -1191 -22 11 c-20 9 -20 8 2 -7 287 -205 463 -355 710 -604 113 -113
227 -221 253 -238 113 -76 241 -117 343 -108 l64 5 0 -279 0 -279 -960 0 -960
0 0 1950 0 1950 393 -2 c249 -1 345 -4 262 -8z"/>
<path d="M5790 5206 c0 -2 8 -10 18 -17 15 -13 16 -12 3 4 -13 16 -21 21 -21
13z"/>
<path d="M5958 1315 c-3 -3 -32 -10 -64 -15 l-59 -9 57 4 c48 3 116 24 82 25
-6 0 -13 -2 -16 -5z"/>
<path d="M5808 1303 c7 -3 16 -2 19 1 4 3 -2 6 -13 5 -11 0 -14 -3 -6 -6z"/>
<path d="M6395 6795 c0 -583 1 -823 2 -533 2 289 2 766 0 1060 -1 293 -2 56
-2 -527z"/>
</g>
</svg>
